<?xml version="1.0" encoding="UTF-8"?>
<svg id="Ebene_1" data-name="Ebene 1" xmlns="http://www.w3.org/2000/svg" viewBox="0 0 1920 1080">
  <defs>
    <style>
      .cls-1 {
        fill: #3f3;
      }

      .cls-1, .cls-2 {
        stroke: #0fade8;
        stroke-miterlimit: 10;
        stroke-width: 4px;
      }

      .cls-2 {
        fill: none;
      }
    </style>
  </defs>
  <path class="cls-2" d="M1045.97,588.06c-13.67,2.33-48.33,2.08-57-12.25-17.47-28.89,3.26-44.99-19.67-67-10.45-10.03-20.65-10.41-20.65-10.41-1.3-40.53,7.4-81.72,7.18-74.73-.43,14.01,27.39,41.68,52.63,34.67,11.2-3.11,20.08-21.78,3.2-36.89-12.43-11.12-36.71-20.14-64.07-15.56-30.97,5.18-17.29,89.92-17.29,89.92,0,0-4.02-.66-8.33-.33-2.12.16-8.04,1.31-8.04,1.31,1.6-64.35,3.42-78.03-6.74-89.75-8.79-10.14-40.21-10.96-66.19,17.96-8.22,9.15-9.41,18.98-.36,25.81,7.67,5.79,16.63,5.48,23,4,19.11-4.45,32.76-37.2,33.55-31.27,1.14,8.53-3.33,43.67,3.33,76.33,0,0-9.44,5.3-14.22,17.6-10.67,27.44-2,68.14,1,80.67,4.06,16.93,12.33,35.33,24.33,47.67,20.46,21.03,49,26.33,67,28,20.16,1.87,69-10.75,69-10.75"/>
  <circle class="cls-1" cx="1045.97" cy="625.56" r="37.5"/>
  <circle class="cls-1" cx="940.98" cy="537.32" r="10"/>
  <path class="cls-2" d="M955.84,669.99s-15.48-7.5-13.76-29.85,8.6-28.35,9.89-29.67"/>
</svg>