<?xml version="1.0" encoding="UTF-8"?>
<!DOCTYPE svg PUBLIC "-//W3C//DTD SVG 1.1//EN" "http://www.w3.org/Graphics/SVG/1.1/DTD/svg11.dtd">
<svg xmlns="http://www.w3.org/2000/svg" style="background: transparent; background-color: transparent; color-scheme: light dark;" xmlns:xlink="http://www.w3.org/1999/xlink" version="1.1" width="2607px" height="935px" viewBox="0 0 2607 935"><defs/><g><g><g><g><g transform="translate(0.5,0.5)"/><g><g transform="translate(0.5,0.5)"><rect x="568" y="55" width="1880" height="550" fill="none" stroke="none" pointer-events="all"/></g><g><g><switch><foreignObject style="overflow: visible; text-align: left;" pointer-events="none" width="100%" height="100%" requiredFeatures="http://www.w3.org/TR/SVG11/feature#Extensibility"><div xmlns="http://www.w3.org/1999/xhtml" style="display: flex; align-items: unsafe center; justify-content: unsafe center; width: 1878px; height: 1px; padding-top: 330px; margin-left: 569px;"><div style="box-sizing: border-box; font-size: 0; text-align: center; color: #000000; "><div style="display: inline-block; font-size: 12px; font-family: Helvetica; color: light-dark(#000000, #ffffff); line-height: 1.2; pointer-events: all; white-space: normal; word-wrap: normal; "><div><font data-font-src="https://fonts.googleapis.com/css?family=Nunito" face="Nunito" style="font-size: 550px;"><b style=""><font style="color: rgb(51, 255, 51);">Bo</font><font style="color: rgb(0, 148, 255);">T</font><font style="color: rgb(51, 255, 51);">ech</font></b></font></div></div></div></div></foreignObject><image x="569" y="0.5" width="1878" height="663"/></switch></g></g></g><g><g transform="translate(0.5,0.5)"><rect x="1478" y="124" width="665" height="58" rx="29" ry="29" fill="#0094ff" stroke="#0fade8" stroke-width="0.1" pointer-events="all" style="fill: rgb(0, 148, 255); stroke: rgb(15, 173, 232);"/></g></g><g><g transform="translate(0.5,0.5)"><rect x="2243" y="124" width="165" height="58" rx="29" ry="29" fill="#0094ff" stroke="#0fade8" stroke-width="0.1" pointer-events="all" style="fill: rgb(0, 148, 255); stroke: rgb(15, 173, 232);"/></g></g></g><g><g transform="translate(0.5,0.5)"/><g><g><ellipse cx="448" cy="475" rx="80" ry="80" fill="#33ff33" stroke="#0094ff" stroke-width="16" pointer-events="all" style="fill: rgb(51, 255, 51); stroke: rgb(0, 148, 255);"/></g></g><g><g><path d="M 448 555 Q 268 605 198 560 Q 128 515 103 460 Q 78 405 83 330 Q 88 255 138 230 Q 188 205 248 220 Q 308 235 318 320 Q 328 405 448 395" fill="none" stroke="#0094ff" stroke-width="16" stroke-miterlimit="10" pointer-events="stroke" style="stroke: rgb(0, 148, 255);"/></g></g><g><g><ellipse cx="218" cy="305" rx="20" ry="20" fill="#33ff33" stroke="#0fade8" stroke-width="16" pointer-events="all" style="fill: rgb(51, 255, 51); stroke: rgb(15, 173, 232);"/></g></g><g><g><path d="M 275.32 563.66 Q 238 545 233 515 Q 228 485 246.34 457.5" fill="none" stroke="#0094ff" stroke-width="16" stroke-miterlimit="10" pointer-events="stroke" style="stroke: rgb(0, 148, 255);"/><ellipse cx="278" cy="565" rx="3" ry="3" fill="#0094ff" stroke="#0094ff" stroke-width="16" pointer-events="all" style="fill: rgb(0, 148, 255); stroke: rgb(0, 148, 255);"/><ellipse cx="248" cy="455" rx="3" ry="3" fill="#0094ff" stroke="#0094ff" stroke-width="16" pointer-events="all" style="fill: rgb(0, 148, 255); stroke: rgb(0, 148, 255);"/></g></g><g><g><path d="M 218 215 Q 218 145 223 100 Q 228 55 258 55 Q 288 55 313 65 Q 338 75 358 100 Q 378 125 368 145 Q 358 165 323 165 Q 288 165 278 105" fill="none" stroke="#0094ff" stroke-width="16" stroke-miterlimit="10" pointer-events="stroke" style="stroke: rgb(0, 148, 255);"/></g></g><g><g><path d="M 248 215 L 278 105" fill="none" stroke="none" pointer-events="stroke"/><path d="M 248 215 C 261.33 174.69 271.78 130.12 278 105 M 248 215 C 254.46 191.65 259.95 165.82 278 105" fill="none" stroke="#0094ff" stroke-width="16" stroke-linejoin="round" stroke-linecap="round" stroke-miterlimit="10" pointer-events="stroke" style="stroke: rgb(0, 148, 255);"/></g></g><g><g><path d="M 178 215 Q 178 135 158 95 Q 138 55 73 60 Q 8 65 8 105 Q 8 145 43 150 Q 78 155 108 105" fill="none" stroke="#0094ff" stroke-width="16" stroke-miterlimit="10" pointer-events="stroke" style="stroke: rgb(0, 148, 255);"/></g></g><g><g><path d="M 148 225 L 108 105" fill="none" stroke="none" pointer-events="stroke"/><path d="M 148 225 C 130 177.33 117.75 137.85 108 105 M 148 225 C 132.7 178.73 114.74 134.22 108 105" fill="none" stroke="#0094ff" stroke-width="16" stroke-linejoin="round" stroke-linecap="round" stroke-miterlimit="10" pointer-events="stroke" style="stroke: rgb(0, 148, 255);"/></g></g></g><g><g transform="translate(0.5,0.5)"><rect x="287" y="635" width="2040" height="190" fill="none" stroke="none" pointer-events="all"/></g><g><g><switch><foreignObject style="overflow: visible; text-align: left;" pointer-events="none" width="100%" height="100%" requiredFeatures="http://www.w3.org/TR/SVG11/feature#Extensibility"><div xmlns="http://www.w3.org/1999/xhtml" style="display: flex; align-items: unsafe center; justify-content: unsafe center; width: 2038px; height: 1px; padding-top: 730px; margin-left: 288px;"><div style="box-sizing: border-box; font-size: 0; text-align: center; color: #000000; "><div style="display: inline-block; font-size: 12px; font-family: Helvetica; color: light-dark(#000000, #ffffff); line-height: 1.2; pointer-events: all; white-space: normal; word-wrap: normal; "><font face="Nunito" style="font-size: 200px; color: rgb(51, 255, 51);"><i><b>Your Idea starts here.</b></i></font></div></div></div></foreignObject><image x="288" y="610.5" width="2038" height="243"/></switch></g></g></g></g></g></g></svg>