<?xml version="1.0" encoding="UTF-8"?>
<svg id="Ebene_2" data-name="Ebene 2" xmlns="http://www.w3.org/2000/svg" viewBox="0 0 1606.09 436">
  <defs>
    <style>
      .cls-1 {
        stroke: #3f3;
      }

      .cls-1, .cls-2 {
        fill: #3f3;
      }

      .cls-3, .cls-4 {
        fill: #0fade8;
      }

      .cls-3, .cls-4, .cls-2, .cls-5 {
        stroke: #0fade8;
      }

      .cls-3, .cls-2, .cls-5, .cls-6 {
        stroke-miterlimit: 10;
      }

      .cls-4 {
        letter-spacing: -.08em;
      }

      .cls-2, .cls-5 {
        stroke-width: 8px;
      }

      .cls-5 {
        fill: none;
      }

      .cls-6 {
        font-family: Nunito-Bold, Nunito;
        font-size: 384.79px;
        font-variation-settings: 'wght' 700;
        font-weight: 700;
      }
    </style>
  </defs>
  <g id="Ebene_1-2" data-name="Ebene 1">
    <g>
      <text class="cls-6" transform="translate(297.59 328.53)"><tspan class="cls-1" x="0" y="0">Bo</tspan><tspan class="cls-4" x="486.36" y="0">T</tspan><tspan class="cls-1" x="695.3" y="0">ech</tspan></text>
      <rect class="cls-3" x="782.24" y="53.82" width="603.05" height="44.34" rx="22.17" ry="22.17"/>
      <rect class="cls-3" x="1473.31" y="53.82" width="108.01" height="44.34" rx="22.17" ry="22.17"/>
    </g>
    <g>
      <path class="cls-5" d="M215.64,241.92c-13.67,2.33-48.33,2.08-57-12.25-17.47-28.89,3.26-44.99-19.67-67-10.45-10.03-20.65-10.41-20.65-10.41-1.3-40.53,7.4-81.72,7.18-74.73-.43,14.01,27.39,41.68,52.63,34.67,11.2-3.11,20.08-21.78,3.2-36.89-12.43-11.12-36.71-20.14-64.07-15.56-30.97,5.18-17.29,89.92-17.29,89.92,0,0-4.02-.66-8.33-.33-2.12.16-8.04,1.31-8.04,1.31,1.6-64.35,3.42-78.03-6.74-89.75-8.79-10.14-40.21-10.96-66.19,17.96-8.22,9.15-9.41,18.98-.36,25.81,7.67,5.79,16.63,5.48,23,4,19.11-4.45,32.76-37.2,33.55-31.27,1.14,8.53-3.33,43.67,3.33,76.33,0,0-9.44,5.3-14.22,17.6-10.67,27.44-2,68.14,1,80.67,4.06,16.93,12.33,35.33,24.33,47.67,20.46,21.03,49,26.33,67,28,20.16,1.87,69-10.75,69-10.75"/>
      <circle class="cls-2" cx="215.64" cy="279.42" r="37.5"/>
      <circle class="cls-2" cx="110.65" cy="191.18" r="10"/>
      <path class="cls-5" d="M125.51,323.85s-15.48-7.5-13.76-29.85,8.6-28.35,9.89-29.67"/>
    </g>
  </g>
</svg>